<svg xmlns="http://www.w3.org/2000/svg" width="57.041" height="70.021" viewBox="0 0 57.041 70.021">
  <g id="bible" transform="translate(-47.455)">
    <g id="Group_18" data-name="Group 18" transform="translate(65.378 12.302)">
      <g id="Group_17" data-name="Group 17">
        <path id="Path_65" data-name="Path 65" d="M199.9,95.713h-5.179V91.32a1.368,1.368,0,0,0-1.368-1.368h-6.925a1.368,1.368,0,0,0-1.368,1.368v4.393h-5.179a1.368,1.368,0,0,0-1.368,1.368v6.925a1.368,1.368,0,0,0,1.368,1.368h5.179v12.771a1.368,1.368,0,0,0,1.368,1.368h6.925a1.368,1.368,0,0,0,1.368-1.368V105.373H199.9a1.368,1.368,0,0,0,1.368-1.368V97.08A1.367,1.367,0,0,0,199.9,95.713Zm-1.368,6.925h-5.179a1.368,1.368,0,0,0-1.368,1.368v12.771h-4.19V104.006a1.368,1.368,0,0,0-1.368-1.368h-5.179v-4.19h5.179a1.368,1.368,0,0,0,1.368-1.368V92.687h4.19V97.08a1.368,1.368,0,0,0,1.368,1.368h5.179v4.19Z" transform="translate(-178.51 -89.952)"/>
      </g>
    </g>
    <g id="Group_20" data-name="Group 20" transform="translate(92.27 58.087)">
      <g id="Group_19" data-name="Group 19">
        <path id="Path_66" data-name="Path 66" d="M377.482,425.143a1.3,1.3,0,0,0-.208-.17,1.409,1.409,0,0,0-.237-.126,1.368,1.368,0,0,0-1.66.5,1.454,1.454,0,0,0-.126.237,1.38,1.38,0,0,0-.078.256,1.389,1.389,0,0,0,0,.535,1.4,1.4,0,0,0,.078.256,1.443,1.443,0,0,0,.126.237,1.556,1.556,0,0,0,.171.208,1.374,1.374,0,0,0,.967.4,1.353,1.353,0,0,0,.267-.026,1.375,1.375,0,0,0,.256-.078,1.373,1.373,0,0,0,.444-.3,1.437,1.437,0,0,0,.17-.208,1.466,1.466,0,0,0,.126-.237,1.389,1.389,0,0,0,.078-.256,1.36,1.36,0,0,0,.027-.268A1.379,1.379,0,0,0,377.482,425.143Z" transform="translate(-375.148 -424.743)"/>
      </g>
    </g>
    <g id="Group_22" data-name="Group 22" transform="translate(56.556 6.052)">
      <g id="Group_21" data-name="Group 21">
        <path id="Path_67" data-name="Path 67" d="M116.709,45.355a1.381,1.381,0,0,0-.078-.256,1.356,1.356,0,0,0-.3-.444,1.388,1.388,0,0,0-.443-.3,1.448,1.448,0,0,0-.256-.078,1.349,1.349,0,0,0-.535,0,1.381,1.381,0,0,0-.256.078,1.352,1.352,0,0,0-.236.126,1.383,1.383,0,0,0-.208.17,1.367,1.367,0,0,0-.17.208,1.469,1.469,0,0,0-.126.236,1.383,1.383,0,0,0-.078.256,1.321,1.321,0,0,0,0,.535,1.373,1.373,0,0,0,.078.256,1.378,1.378,0,0,0,.3.444,1.374,1.374,0,0,0,.208.169,1.349,1.349,0,0,0,.236.126,1.384,1.384,0,0,0,.256.078,1.347,1.347,0,0,0,.267.027,1.372,1.372,0,0,0,.268-.027,1.447,1.447,0,0,0,.256-.078,1.393,1.393,0,0,0,.443-.3,1.532,1.532,0,0,0,.171-.208,1.46,1.46,0,0,0,.126-.236,1.384,1.384,0,0,0,.078-.256,1.388,1.388,0,0,0,0-.535Z" transform="translate(-114 -44.255)"/>
      </g>
    </g>
    <g id="Group_24" data-name="Group 24" transform="translate(47.455)">
      <g id="Group_23" data-name="Group 23">
        <path id="Path_68" data-name="Path 68" d="M103.128,0H56.313a8.861,8.861,0,0,0-8.858,8.858v52.3a8.861,8.861,0,0,0,8.858,8.858h46.815a1.368,1.368,0,0,0,1.368-1.368v-5.2a1.368,1.368,0,0,0-1.367-1.368V56.755a1.368,1.368,0,0,0,1.367-1.368V1.368A1.368,1.368,0,0,0,103.128,0Zm-1.368,54.02H59.291V12.21a1.368,1.368,0,1,0-2.735,0V54.316a5.409,5.409,0,0,0-3.6,4.548v.007c-.008.079-.014.158-.018.237,0,.013,0,.026,0,.039q-.007.137-.007.275a5.408,5.408,0,0,0,5.4,5.4H101.76v2.462H56.313a6.125,6.125,0,0,1-6.123-6.123V8.858a6.125,6.125,0,0,1,6.123-6.123H91.29V29.085a1.368,1.368,0,0,0,2.024,1.2l4.579-2.5L101.76,29.9V54.02ZM88.847,58.086H56.023a2.673,2.673,0,0,1,1.765-1.276h0c.075-.015.152-.026.229-.035l.038-.006a2.674,2.674,0,0,1,.27-.014h42.066v5.334H58.327a2.665,2.665,0,0,1-2.266-1.267H88.847a1.368,1.368,0,0,0,0-2.735Zm12.914-31.308-3.211-1.757a1.367,1.367,0,0,0-1.313,0l-3.211,1.757V2.735h7.735Z" transform="translate(-47.455)"/>
      </g>
    </g>
  </g>
</svg>
