<svg xmlns="http://www.w3.org/2000/svg" xmlns:xlink="http://www.w3.org/1999/xlink" width="59" height="59" viewBox="0 0 59 59">
  <defs>
    <clipPath id="clip-path">
      <rect id="Rectangle_18" data-name="Rectangle 18" width="59" height="59" transform="translate(1197.899 1812)" fill="#f6bd28"/>
    </clipPath>
  </defs>
  <g id="Mask_Group_5" data-name="Mask Group 5" transform="translate(-1197.899 -1812)" clip-path="url(#clip-path)">
    <g id="house" transform="translate(1197.899 1812)">
      <g id="Group_78" data-name="Group 78">
        <g id="Group_77" data-name="Group 77">
          <path id="Path_117" data-name="Path 117" d="M15.662,53.244A4.916,4.916,0,0,0,6.4,51.922a4.182,4.182,0,0,0-.5-.3V35.4a.983.983,0,1,0-1.967,0V51.133a3.933,3.933,0,0,0,0,7.867H14.75a2.95,2.95,0,0,0,.912-5.756Zm-.912,3.79H3.933a1.967,1.967,0,1,1,0-3.933,2.136,2.136,0,0,1,2.029,1.327.983.983,0,0,0,1.9-.344,2.95,2.95,0,1,1,5.9,0,.984.984,0,0,0,.983.983.983.983,0,0,1,0,1.967Z" fill="#f6bd28"/>
          <path id="Path_118" data-name="Path 118" d="M58.017,7.867H39.333a.983.983,0,1,0,0,1.967h17.7V31.06L30.2,4.221a.99.99,0,0,0-1.4,0L1.967,31.059V9.833H12.783a.984.984,0,0,0,.983-.983V4.917a.984.984,0,0,0-.983-.983H11.8V1.967h5.9V3.933h-.983a.984.984,0,0,0-.983.983V8.85a.984.984,0,0,0,.983.983h2.95a.983.983,0,1,0,0-1.967H17.7V5.9h.983a.984.984,0,0,0,.983-.983V.983A.984.984,0,0,0,18.683,0H10.817a.984.984,0,0,0-.983.983V4.917a.984.984,0,0,0,.983.983H11.8V7.867H.983A.984.984,0,0,0,0,8.85L0,33.433a.983.983,0,0,0,1.679.7L29.5,6.3,57.321,34.129a.983.983,0,0,0,1.679-.7V8.85A.984.984,0,0,0,58.017,7.867Z" fill="#f6bd28"/>
          <path id="Path_119" data-name="Path 119" d="M55.067,51.133V35.4a.983.983,0,1,0-1.967,0V51.618a4.167,4.167,0,0,0-.5.3,4.916,4.916,0,0,0-9.26,1.322A2.956,2.956,0,0,0,41.3,56.05a2.887,2.887,0,0,0,.182.983h-16.9a.983.983,0,1,0,0,1.967H55.067a3.933,3.933,0,1,0,0-7.867Zm0,5.9H44.25a.983.983,0,1,1,0-1.967.984.984,0,0,0,.983-.983,2.95,2.95,0,1,1,5.9,0,.983.983,0,0,0,1.9.344A2.136,2.136,0,0,1,55.067,53.1a1.967,1.967,0,1,1,0,3.933Z" fill="#f6bd28"/>
          <path id="Path_120" data-name="Path 120" d="M33.433,19.667A3.933,3.933,0,1,0,29.5,23.6,3.937,3.937,0,0,0,33.433,19.667Zm-5.9,0A1.967,1.967,0,1,1,29.5,21.633,1.969,1.969,0,0,1,27.533,19.667Z" fill="#f6bd28"/>
          <path id="Path_121" data-name="Path 121" d="M48.183,33.433H40.317a.984.984,0,0,0-.983.983V45.233H38.35a.983.983,0,1,0,0,1.967h11.8a.983.983,0,1,0,0-1.967h-.983V34.417A.984.984,0,0,0,48.183,33.433Zm-.983,11.8H41.3V41.3h5.9Zm0-5.9H41.3V35.4h5.9Z" fill="#f6bd28"/>
          <path id="Path_122" data-name="Path 122" d="M39.333,54.083a.984.984,0,0,0-.983-.983H35.4V34.417a.984.984,0,0,0-.983-.983H24.583a.984.984,0,0,0-.983.983V53.1H20.65a.984.984,0,0,0-.983.983v3.933a.983.983,0,1,0,1.967,0v-2.95H38.35A.984.984,0,0,0,39.333,54.083Zm-5.9-10.817H32.45a.983.983,0,0,0,0,1.967h.983V53.1H25.567V35.4h7.867Z" fill="#f6bd28"/>
          <path id="Path_123" data-name="Path 123" d="M18.683,33.433H10.817a.984.984,0,0,0-.983.983V45.233H8.85a.983.983,0,0,0,0,1.967h11.8a.983.983,0,1,0,0-1.967h-.983V34.417A.984.984,0,0,0,18.683,33.433Zm-.983,11.8H11.8V41.3h5.9Zm0-5.9H11.8V35.4h5.9Z" fill="#f6bd28"/>
        </g>
      </g>
    </g>
  </g>
</svg>
