<svg xmlns="http://www.w3.org/2000/svg" xmlns:xlink="http://www.w3.org/1999/xlink" width="59" height="59" viewBox="0 0 59 59">
  <defs>
    <clipPath id="clip-path">
      <rect id="Rectangle_24" data-name="Rectangle 24" width="59" height="59" transform="translate(983.899 2002)" fill="#f6bd28"/>
    </clipPath>
  </defs>
  <g id="Mask_Group_14" data-name="Mask Group 14" transform="translate(-983.899 -2002)" clip-path="url(#clip-path)">
    <g id="hug" transform="translate(983.899 2002)">
      <g id="Group_94" data-name="Group 94">
        <path id="Path_154" data-name="Path 154" d="M58.136,26.1a.864.864,0,0,0-.864.864v1.013h-2.9a6.869,6.869,0,0,0-.239-.747.862.862,0,0,0,.16-.3,14.171,14.171,0,0,0-23.4-14.426l-.758.748a1.521,1.521,0,0,1-2.13,0l-.758-.748a14.117,14.117,0,0,0-17.2-2.01.864.864,0,0,0,.9,1.478,12.336,12.336,0,0,1,15.085,1.762l.758.748a3.256,3.256,0,0,0,4.559,0l.758-.748a12.388,12.388,0,0,1,17.343,0,12.526,12.526,0,0,1,3.5,11.5,6.944,6.944,0,0,0-.723-.734L45.461,18.6a1.437,1.437,0,0,0-1.946.063l-.02.02a3.36,3.36,0,0,0-.242,4.539l1.772,2.165a.215.215,0,0,1,.031.245.243.243,0,0,1-.232.142h-10.1a2.531,2.531,0,0,0-2.538,2.517,2.488,2.488,0,0,0,.13.794,2.517,2.517,0,0,0,.172,5.029h.948a2.489,2.489,0,0,0-.13.8,2.53,2.53,0,0,0,2.369,2.512,2.487,2.487,0,0,0-.132.8,2.53,2.53,0,0,0,2.536,2.517l2.97.008a61.254,61.254,0,0,1-7.295,5.389L29.882,48.57a1.53,1.53,0,0,1-1.622,0L24.4,46.137A61.278,61.278,0,0,1,17.1,40.75l3.823-.01a2.531,2.531,0,0,0,2.538-2.517,2.485,2.485,0,0,0-.132-.8A2.53,2.53,0,0,0,25.7,34.909a2.485,2.485,0,0,0-.13-.8h.948a2.517,2.517,0,0,0,.172-5.029,2.488,2.488,0,0,0,.13-.794,2.531,2.531,0,0,0-2.538-2.517h-10.1a.243.243,0,0,1-.232-.142.215.215,0,0,1,.031-.245l1.772-2.165a3.36,3.36,0,0,0-.243-4.539l-.019-.018A1.437,1.437,0,0,0,13.54,18.6l-6.764,5.91a6.927,6.927,0,0,0-1.363,1.62A12.587,12.587,0,0,1,8.692,13.743a.864.864,0,0,0-1.214-1.23A14.306,14.306,0,0,0,4.116,27.708a.86.86,0,0,0,.166.273H1.729V26.968a.864.864,0,0,0-1.729,0V39.891a.864.864,0,1,0,1.729,0V38.546H5.8A11.564,11.564,0,0,1,10.9,39.733a9.958,9.958,0,0,0,3.6.991l.309.288c.274.256.557.52.739.679a62.975,62.975,0,0,0,7.925,5.91l3.864,2.433a3.267,3.267,0,0,0,3.464,0L34.667,47.6a62.923,62.923,0,0,0,8.907-6.789c.02-.018.039-.037.056-.057h.088A9.956,9.956,0,0,0,48.1,39.733,11.565,11.565,0,0,1,53.2,38.546h4.076v1.345a.864.864,0,1,0,1.729,0V26.968A.864.864,0,0,0,58.136,26.1ZM15.281,39.026a8.218,8.218,0,0,1-3.619-.844A13.3,13.3,0,0,0,5.8,36.817H1.729V29.71h3.61a.864.864,0,0,0,.856-.743,5.164,5.164,0,0,1,1.719-3.158l6.54-5.714a1.637,1.637,0,0,1-.042,2.029L12.638,24.29a1.943,1.943,0,0,0-.256,2.08A1.967,1.967,0,0,0,14.177,27.5h10.1a.788.788,0,0,1,.074,1.574l-8.952.011a.864.864,0,0,0,0,1.729h0l8.8-.011q.037,0,.074,0h2.237a.789.789,0,1,1,0,1.577H19.133l-3.751.007a.864.864,0,0,0,0,1.729h7.78a.789.789,0,1,1,0,1.577l-7.761.015a.864.864,0,0,0,0,1.729h0l5.518-.007a.789.789,0,1,1,0,1.577Zm41.99-2.209H53.2a13.3,13.3,0,0,0-5.857,1.366,8.216,8.216,0,0,1-3.617.844l-5.648-.015a.789.789,0,1,1,0-1.577h1.772l3.747.007h0a.864.864,0,0,0,0-1.729L35.837,35.7a.789.789,0,1,1,0-1.577h7.794a.864.864,0,0,0,0-1.729l-3.767-.007H32.481a.789.789,0,1,1,0-1.577H34.7l8.9.006h0a.864.864,0,0,0,0-1.729l-8.83-.006h-.046a.789.789,0,1,1,0-1.577h10.1a1.967,1.967,0,0,0,1.794-1.131,1.943,1.943,0,0,0-.256-2.08l-1.772-2.165a1.637,1.637,0,0,1-.042-2.029l6.54,5.714a5.165,5.165,0,0,1,1.719,3.158.864.864,0,0,0,.856.743h3.61Z" fill="#f6bd28"/>
      </g>
    </g>
  </g>
</svg>
