<svg xmlns="http://www.w3.org/2000/svg" xmlns:xlink="http://www.w3.org/1999/xlink" width="59" height="59" viewBox="0 0 59 59">
  <defs>
    <clipPath id="clip-path">
      <rect id="Rectangle_13" data-name="Rectangle 13" width="59" height="59" transform="translate(342 1622)" fill="#f6bd28"/>
    </clipPath>
  </defs>
  <g id="Mask_Group_1" data-name="Mask Group 1" transform="translate(-342 -1622)" clip-path="url(#clip-path)">
    <g id="pray" transform="translate(342 1622)">
      <g id="Group_28" data-name="Group 28">
        <g id="Group_27" data-name="Group 27">
          <path id="Path_88" data-name="Path 88" d="M53.294,50.51l-5.917-8.423-.913-1.506L43.919,24.931c-.155-.953-.357-1.909-.6-2.842-.006-.022-.012-.045-.02-.067L37.04,2.854a4.136,4.136,0,0,0-7.54-.745,4.138,4.138,0,0,0-7.54.745L15.7,22.022c-.007.022-.014.044-.02.067-.243.934-.445,1.89-.6,2.842L12.536,40.581l-.913,1.506L5.705,50.51a1.152,1.152,0,0,0,.3,1.621l10.012,6.675a1.152,1.152,0,0,0,1.57-.279l6.17-8.456h0l4.177-5.716a1.153,1.153,0,0,0,.213-.536L29.5,33.127,30.848,43.82a1.152,1.152,0,0,0,.213.536l4.177,5.716h0l6.17,8.456a1.152,1.152,0,0,0,1.57.279l10.012-6.675a1.153,1.153,0,0,0,.3-1.621ZM16.381,56.276,8.27,50.868l4.621-6.579,8.293,5.4ZM28.327,23.983,25.9,43.236,22.545,47.83l-8.393-5.47.471-.776a1.15,1.15,0,0,0,.152-.413L17.355,25.3c.142-.87.326-1.744.547-2.6L24.15,3.57a1.835,1.835,0,0,1,3.558.844L26.1,15.006c0,.027-.007.055-.009.083l-.3,3.861a4.727,4.727,0,0,0-4.585,4.141l-.779,6.267v0l-.115.925a1.152,1.152,0,0,0,2.287.285l.895-7.195a2.4,2.4,0,0,1,.914-1.611l.013-.01a2.4,2.4,0,0,1,1.773-.482h0a2.468,2.468,0,0,1,.345.069l.037.01A2.439,2.439,0,0,1,28.327,23.983ZM29.5,20.6a4.764,4.764,0,0,0-1.433-1.128l.326-4.162L29.5,7.974l1.11,7.336.326,4.161A4.774,4.774,0,0,0,29.5,20.6Zm3.6,22.635-2.43-19.264a2.394,2.394,0,0,1-.017-.255c0-.005,0-.01,0-.015a2.437,2.437,0,0,1,1.764-2.348l.043-.011a2.468,2.468,0,0,1,.345-.069h0a2.42,2.42,0,0,1,2.7,2.1L36.4,30.57a1.152,1.152,0,0,0,2.287-.285l-.115-.922v-.006l-.779-6.267a4.693,4.693,0,0,0-1.785-3.144l-.015-.012a4.735,4.735,0,0,0-1.263-.7,4.676,4.676,0,0,0-1.522-.286l-.3-3.861c0-.028-.005-.055-.009-.083l-1.6-10.593A1.834,1.834,0,0,1,34.85,3.57L41.1,22.7c.221.853.406,1.727.547,2.6l2.58,15.87a1.151,1.151,0,0,0,.152.413l.471.776-8.393,5.47Zm9.522,13.04-4.8-6.582,8.293-5.4,4.621,6.579Z" fill="#f6bd28"/>
        </g>
      </g>
      <g id="Group_30" data-name="Group 30">
        <g id="Group_29" data-name="Group 29">
          <path id="Path_89" data-name="Path 89" d="M39.184,34.318a1.164,1.164,0,0,0-.066-.215,1.225,1.225,0,0,0-.106-.2,1.151,1.151,0,0,0-.143-.175,1.1,1.1,0,0,0-.175-.143,1.18,1.18,0,0,0-.2-.106,1.164,1.164,0,0,0-.215-.066,1.141,1.141,0,0,0-.451,0,1.164,1.164,0,0,0-.215.066,1.225,1.225,0,0,0-.2.106,1.149,1.149,0,0,0-.175.143,1.157,1.157,0,0,0-.249.375,1.164,1.164,0,0,0-.066.215,1.17,1.17,0,0,0,0,.451,1.164,1.164,0,0,0,.316.59,1.148,1.148,0,0,0,.174.143,1.234,1.234,0,0,0,.2.106,1.155,1.155,0,0,0,.215.066,1.113,1.113,0,0,0,.451,0,1.163,1.163,0,0,0,.215-.066,1.18,1.18,0,0,0,.2-.106,1.1,1.1,0,0,0,.175-.143,1.166,1.166,0,0,0,.338-.816A1.135,1.135,0,0,0,39.184,34.318Z" fill="#f6bd28"/>
        </g>
      </g>
      <g id="Group_32" data-name="Group 32">
        <g id="Group_31" data-name="Group 31">
          <path id="Path_90" data-name="Path 90" d="M22.076,34.318a1.172,1.172,0,0,0-.066-.215,1.225,1.225,0,0,0-.106-.2,1.159,1.159,0,0,0-.144-.175,1.1,1.1,0,0,0-.175-.143,1.154,1.154,0,0,0-.414-.172,1.141,1.141,0,0,0-.451,0,1.164,1.164,0,0,0-.215.066,1.18,1.18,0,0,0-.2.106,1.117,1.117,0,0,0-.318.318,1.225,1.225,0,0,0-.106.2,1.164,1.164,0,0,0-.066.215,1.17,1.17,0,0,0,0,.451,1.191,1.191,0,0,0,.066.215,1.191,1.191,0,0,0,.249.375,1.157,1.157,0,0,0,.175.143,1.188,1.188,0,0,0,.2.106,1.155,1.155,0,0,0,.215.066,1.113,1.113,0,0,0,.451,0,1.151,1.151,0,0,0,.414-.172,1.108,1.108,0,0,0,.175-.143,1.159,1.159,0,0,0,.316-.59,1.17,1.17,0,0,0,0-.451Z" fill="#f6bd28"/>
        </g>
      </g>
      <g id="Group_34" data-name="Group 34">
        <g id="Group_33" data-name="Group 33">
          <path id="Path_91" data-name="Path 91" d="M51.454,13.27H47.362a1.152,1.152,0,0,0,0,2.3h4.092a1.152,1.152,0,0,0,0-2.3Z" fill="#f6bd28"/>
        </g>
      </g>
      <g id="Group_36" data-name="Group 36">
        <g id="Group_35" data-name="Group 35">
          <path id="Path_92" data-name="Path 92" d="M50.789,21.944,47.9,19.051a1.152,1.152,0,0,0-1.63,1.63l2.893,2.893a1.152,1.152,0,0,0,1.63-1.63Z" fill="#f6bd28"/>
        </g>
      </g>
      <g id="Group_38" data-name="Group 38">
        <g id="Group_37" data-name="Group 37">
          <path id="Path_93" data-name="Path 93" d="M50.789,5.413a1.153,1.153,0,0,0-1.63,0L46.266,8.306a1.152,1.152,0,1,0,1.63,1.63l2.893-2.893A1.152,1.152,0,0,0,50.789,5.413Z" fill="#f6bd28"/>
        </g>
      </g>
      <g id="Group_40" data-name="Group 40">
        <g id="Group_39" data-name="Group 39">
          <path id="Path_94" data-name="Path 94" d="M11.638,13.411H7.546a1.152,1.152,0,0,0,0,2.3h4.092a1.152,1.152,0,1,0,0-2.3Z" fill="#f6bd28"/>
        </g>
      </g>
      <g id="Group_42" data-name="Group 42">
        <g id="Group_41" data-name="Group 41">
          <path id="Path_95" data-name="Path 95" d="M12.733,8.306,9.84,5.413a1.152,1.152,0,0,0-1.63,1.63L11.1,9.936a1.152,1.152,0,1,0,1.63-1.63Z" fill="#f6bd28"/>
        </g>
      </g>
      <g id="Group_44" data-name="Group 44">
        <g id="Group_43" data-name="Group 43">
          <path id="Path_96" data-name="Path 96" d="M12.733,19.051a1.153,1.153,0,0,0-1.63,0L8.21,21.944a1.152,1.152,0,1,0,1.63,1.63l2.893-2.893A1.153,1.153,0,0,0,12.733,19.051Z" fill="#f6bd28"/>
        </g>
      </g>
    </g>
  </g>
</svg>
