<svg xmlns="http://www.w3.org/2000/svg" xmlns:xlink="http://www.w3.org/1999/xlink" width="59" height="59" viewBox="0 0 59 59">
  <defs>
    <clipPath id="clip-path">
      <rect id="Rectangle_22" data-name="Rectangle 22" width="59" height="59" transform="translate(342 1812)" fill="#f6bd28"/>
    </clipPath>
  </defs>
  <g id="Mask_Group_9" data-name="Mask Group 9" transform="translate(-342 -1812)" clip-path="url(#clip-path)">
    <g id="musical-notes-symbols" transform="translate(342 1812)">
      <path id="Path_134" data-name="Path 134" d="M28.836,23.712l22.047-3.576V50.027c0,2.474-1.843,4.45-4.721,5.178-3.162.782-6.209-.541-6.818-2.964s1.464-5.029,4.623-5.82a7.061,7.061,0,0,1,4.009.135V28.546L31.818,31.5l-.076,22.4c-.014,2.119-1.93,4.206-4.68,4.886-3.121.782-6.4-.7-6.745-2.926-.6-2.4,1.445-4.972,4.577-5.757a6.9,6.9,0,0,1,3.941.125V23.712ZM20.547,34.674l.078-27.688s6.031-.322,11.929,8.927a11.219,11.219,0,0,0-4.518-8.269C19.183,1.462,19.207,0,19.207,0a1.914,1.914,0,0,0-1.862,1.481V30.636a7.616,7.616,0,0,0-4.336-.135c-3.438.85-5.684,3.689-5.027,6.329.387,2.439,3.982,4.076,7.417,3.213,3.018-.752,5.127-3.032,5.143-5.368ZM36.582,16.782a2.164,2.164,0,0,0,1.789-1.868h0L38.4,5.281s2.1-.111,4.15,3.107a3.9,3.9,0,0,0-1.575-2.875c-3.08-2.152-3.07-2.661-3.07-2.661a.668.668,0,0,0-.65.514V13.512a2.63,2.63,0,0,0-1.5-.051A2.021,2.021,0,0,0,34,15.664C34.138,16.514,35.389,17.083,36.582,16.782Zm10.394.024a1.508,1.508,0,0,0,1.245-1.3l.019-6.71s1.462-.078,2.891,2.163a2.721,2.721,0,0,0-1.094-2C47.891,7.455,47.9,7.1,47.9,7.1a.467.467,0,0,0-.452.36v7.067a1.829,1.829,0,0,0-1.05-.032,1.406,1.406,0,0,0-1.218,1.532C45.269,16.62,46.14,17.018,46.977,16.807Z" fill="#f6bd28"/>
    </g>
  </g>
</svg>
