<svg xmlns="http://www.w3.org/2000/svg" xmlns:xlink="http://www.w3.org/1999/xlink" width="59" height="59" viewBox="0 0 59 59">
  <defs>
    <clipPath id="clip-path">
      <rect id="Rectangle_17" data-name="Rectangle 17" width="59" height="59" transform="translate(1197.899 1622)" fill="#f6bd28"/>
    </clipPath>
  </defs>
  <g id="Mask_Group_15" data-name="Mask Group 15" transform="translate(-1197.899 -1622)" clip-path="url(#clip-path)">
    <g id="man-reading" transform="translate(1197.899 1622)">
      <g id="Group_95" data-name="Group 95">
        <path id="Path_155" data-name="Path 155" d="M13.569,19.748l3.928.675a14.123,14.123,0,0,1-.578-3.044l3.651.525v2.231h9.579V18.558H31.84v1.578h9.577V17.962l3.049-.472A17.247,17.247,0,0,1,44.2,19.8l3.034-.571C46.582,11.064,43.454,0,30.464,0a15.216,15.216,0,0,0-4.929.648c-.937.419-1.105,1.376-1.709,1.579-.63.212-1.523.126-2.077.4C13.1,6.79,13.4,16.949,13.4,16.949Zm15.516-.677H21.633V15.277h7.453Zm11.267,0H32.9V15.277h7.449ZM16.968,14.945c3.851-.262,8.2-3.294,8.538-7.518,4.874,4.036,11.781,4.233,17.535,4.748.719.337,1.243,1.784,1.391,3.7l-3.014.467v-2.13H31.838V16.43H30.147V14.213H20.568v2.077l-3.7-.533C16.9,15.489,16.937,15.22,16.968,14.945Z" fill="#f6bd28"/>
        <path id="Path_156" data-name="Path 156" d="M53.471,39.071a6.149,6.149,0,0,0-1.995-4.726V20.118l-21.71,3.459L8.049,20.118V33.97a5.876,5.876,0,0,0-2.52,5.1,5.874,5.874,0,0,0,2.52,5.1V55.539L29.766,59l21.71-3.457V43.8A6.151,6.151,0,0,0,53.471,39.071ZM28.78,56.848,10.02,53.859V44.648c2.26-.146,4.065-2.577,4.065-5.577s-1.8-5.432-4.065-5.58V22.425l18.76,2.991Zm20.727-2.989L30.749,56.848V25.416l18.758-2.991v11.08a3.016,3.016,0,0,0-.315-.038c-2.363,0-4.279,2.511-4.279,5.6s1.916,5.606,4.279,5.606c.11,0,.207-.031.315-.04Z" fill="#f6bd28"/>
      </g>
    </g>
  </g>
</svg>
