<svg xmlns="http://www.w3.org/2000/svg" xmlns:xlink="http://www.w3.org/1999/xlink" width="59" height="59" viewBox="0 0 59 59">
  <defs>
    <clipPath id="clip-path">
      <rect id="Rectangle_25" data-name="Rectangle 25" width="59" height="59" transform="translate(770.899 2002)" fill="#f6bd28"/>
    </clipPath>
  </defs>
  <g id="Mask_Group_12" data-name="Mask Group 12" transform="translate(-770.899 -2002)" clip-path="url(#clip-path)">
    <path id="bars" d="M50.055,17.433a2.981,2.981,0,0,0,.75-1.249h6.22A1.977,1.977,0,0,0,59,14.208V12.17a1.977,1.977,0,0,0-1.975-1.975H48.806V1.975A1.977,1.977,0,0,0,46.83,0H44.792a1.977,1.977,0,0,0-1.975,1.975V8.2a3,3,0,0,0-2,2H32.495V1.975A1.977,1.977,0,0,0,30.519,0H28.481a1.977,1.977,0,0,0-1.975,1.975V8.2a3,3,0,0,0-2,2H16.184V1.975A1.977,1.977,0,0,0,14.208,0H12.17a1.977,1.977,0,0,0-1.975,1.975V8.2a3,3,0,0,0-2,2H1.975A1.977,1.977,0,0,0,0,12.17v2.039a1.977,1.977,0,0,0,1.975,1.975h8.219v8.335A2.992,2.992,0,0,0,8.2,26.505H1.975A1.977,1.977,0,0,0,0,28.481v2.039a1.977,1.977,0,0,0,1.975,1.975h8.219v8.327a2.994,2.994,0,0,0-2,1.995H1.975A1.978,1.978,0,0,0,0,44.792V46.83a1.977,1.977,0,0,0,1.975,1.975h8.219v8.219A1.977,1.977,0,0,0,12.17,59h2.039a1.977,1.977,0,0,0,1.975-1.975V50.809a3,3,0,0,0,2-2.008.98.98,0,0,0,.1.005h8.219v8.219A1.977,1.977,0,0,0,28.481,59h2.039a1.977,1.977,0,0,0,1.975-1.975V50.809a3,3,0,0,0,2-2h8.322v8.219A1.977,1.977,0,0,0,44.792,59H46.83a1.977,1.977,0,0,0,1.975-1.975V50.809a3,3,0,0,0,2-2h6.219A1.977,1.977,0,0,0,59,46.83V44.792a1.977,1.977,0,0,0-1.975-1.975H48.806V34.506a3,3,0,0,0,2-2.011h6.217A1.977,1.977,0,0,0,59,30.52V28.481a1.977,1.977,0,0,0-1.975-1.975H48.806V18.183A2.983,2.983,0,0,0,50.055,17.433ZM45.8,25.268a2.985,2.985,0,0,0-1.074-.69V16.341l1.092,1.092a2.985,2.985,0,0,0,1.074.69V26.36Zm0,16.3a2.985,2.985,0,0,0-1.074-.69V32.664l1.092,1.092a2.986,2.986,0,0,0,1.074.691v8.217ZM33.744,45.824l-1.1-1.1h8.066a.952.952,0,0,0,.161-.015,2.971,2.971,0,0,0,.693,1.093l1.088,1.088H34.433A2.988,2.988,0,0,0,33.744,45.824ZM18.127,46.908a2.984,2.984,0,0,0-.694-1.085l-1.1-1.1H24.4a.952.952,0,0,0,.161-.015,2.971,2.971,0,0,0,.693,1.093l1.088,1.088H18.286A.96.96,0,0,0,18.127,46.908ZM13.2,33.756a2.983,2.983,0,0,0,1.086.7.953.953,0,0,0-.012.146v8.066L13.18,41.571a2.985,2.985,0,0,0-1.074-.69V32.664Zm12.058,7.815a2.976,2.976,0,0,0-.748,1.251.959.959,0,0,0-.105-.006H16.184V34.6c0-.03,0-.061,0-.09a3,3,0,0,0,2.007-2.012h8.32v8.327A2.979,2.979,0,0,0,25.256,41.571ZM13.2,17.433a2.985,2.985,0,0,0,1.074.69V26.36L13.18,25.268a2.985,2.985,0,0,0-1.074-.69V16.341ZM25.256,13.18l1.092,1.092H18.123a2.987,2.987,0,0,0-.69-1.074l-1.092-1.092h8.225A2.987,2.987,0,0,0,25.256,13.18Zm6.37,19.541a1.076,1.076,0,0,1-.766-.317h0l-4.253-4.252A1.083,1.083,0,0,1,28.14,26.62l4.253,4.253a1.083,1.083,0,0,1-.766,1.849ZM30.583,26.36l-1.092-1.092a2.985,2.985,0,0,0-1.074-.69V16.341l1.092,1.092a2.985,2.985,0,0,0,1.074.69Zm-13.15-8.927a2.981,2.981,0,0,0,.75-1.249h8.323v8.335a2.992,2.992,0,0,0-1.992,1.987h-8.33V18.183A2.981,2.981,0,0,0,17.433,17.433Zm7.133,10.984a2.971,2.971,0,0,0,.69,1.086l1.08,1.08H18.119a2.984,2.984,0,0,0-.686-1.062l-1.1-1.1Zm3.851,4.247,1.092,1.092a2.983,2.983,0,0,0,1.086.7.953.953,0,0,0-.012.146v8.066l-1.092-1.092a2.985,2.985,0,0,0-1.074-.69V32.664Zm13.15,8.907a2.976,2.976,0,0,0-.748,1.251.959.959,0,0,0-.105-.006H32.495V34.6c0-.03,0-.061,0-.09A3,3,0,0,0,34.5,32.495h8.32v8.327A2.979,2.979,0,0,0,41.567,41.571ZM34.43,30.583a2.984,2.984,0,0,0-.686-1.062l-1.1-1.1h8.237a2.971,2.971,0,0,0,.69,1.086l1.08,1.08Zm7.137-5.315a2.974,2.974,0,0,0-.743,1.237h-8.33V18.183a3,3,0,0,0,2-2h8.323v8.335A2.98,2.98,0,0,0,41.567,25.268Zm0-12.088,1.092,1.092H34.434a2.987,2.987,0,0,0-.69-1.074l-1.092-1.092h8.225A2.987,2.987,0,0,0,41.567,13.18ZM57.089,12.17v2.039a.064.064,0,0,1-.064.064H50.745a2.987,2.987,0,0,0-.69-1.074l-1.092-1.092h8.062A.064.064,0,0,1,57.089,12.17ZM44.792,1.911H46.83a.064.064,0,0,1,.064.064v8.062L45.8,8.945a2.985,2.985,0,0,0-1.074-.69V1.975A.064.064,0,0,1,44.792,1.911ZM42.919,10.3a1.084,1.084,0,0,1,1.532,0L48.7,14.55a1.083,1.083,0,1,1-1.532,1.532l-4.253-4.253A1.084,1.084,0,0,1,42.919,10.3ZM28.481,1.911h2.039a.064.064,0,0,1,.064.064v8.062L29.491,8.945a2.985,2.985,0,0,0-1.074-.69V1.975A.064.064,0,0,1,28.481,1.911ZM26.608,10.3a1.084,1.084,0,0,1,1.532,0l4.253,4.253a1.083,1.083,0,0,1-1.532,1.532l-4.253-4.253A1.084,1.084,0,0,1,26.608,10.3ZM12.17,1.911h2.039a.064.064,0,0,1,.064.064v8.062L13.18,8.945a2.985,2.985,0,0,0-1.074-.69V1.975A.064.064,0,0,1,12.17,1.911ZM10.3,10.3a1.084,1.084,0,0,1,1.532,0l4.253,4.253a1.083,1.083,0,1,1-1.532,1.532L10.3,11.828A1.084,1.084,0,0,1,10.3,10.3ZM1.911,14.208V12.17a.064.064,0,0,1,.064-.064H8.255a2.987,2.987,0,0,0,.69,1.074l1.092,1.092H1.975A.064.064,0,0,1,1.911,14.208ZM10.3,26.62a1.084,1.084,0,0,1,1.532,0l4.253,4.253A1.083,1.083,0,0,1,14.55,32.4h0L10.3,28.152A1.084,1.084,0,0,1,10.3,26.62Zm-8.385,3.9V28.481a.064.064,0,0,1,.064-.064h6.28a2.971,2.971,0,0,0,.69,1.086l1.08,1.08H1.975A.064.064,0,0,1,1.911,30.519Zm0,16.311V44.792a.064.064,0,0,1,.064-.064H8.258a2.972,2.972,0,0,0,.688,1.078l1.088,1.088H1.975A.064.064,0,0,1,1.911,46.83Zm12.3,10.258H12.17a.064.064,0,0,1-.064-.064V48.967L13.2,50.059h0a2.985,2.985,0,0,0,1.074.69v6.276A.064.064,0,0,1,14.208,57.089Zm1.873-8.381a1.084,1.084,0,0,1-1.532,0L10.3,44.455a1.083,1.083,0,0,1,1.532-1.532l4.253,4.253A1.084,1.084,0,0,1,16.081,48.707Zm14.438,8.381H28.481a.064.064,0,0,1-.064-.064V48.967l1.092,1.092h0a2.985,2.985,0,0,0,1.074.69v6.276A.064.064,0,0,1,30.519,57.089Zm1.873-8.381a1.084,1.084,0,0,1-1.532,0l-4.253-4.252a1.083,1.083,0,0,1,1.532-1.532l4.253,4.253A1.084,1.084,0,0,1,32.392,48.707ZM46.83,57.089H44.792a.064.064,0,0,1-.064-.064V48.967l1.092,1.092h0a2.985,2.985,0,0,0,1.074.69v6.276A.064.064,0,0,1,46.83,57.089ZM48.7,48.707a1.084,1.084,0,0,1-1.532,0l-4.253-4.252a1.083,1.083,0,0,1,1.532-1.532L48.7,47.176A1.084,1.084,0,0,1,48.7,48.707Zm8.385-3.916V46.83a.064.064,0,0,1-.064.064H50.744a2.984,2.984,0,0,0-.689-1.07l-1.1-1.1h8.066A.064.064,0,0,1,57.089,44.792ZM48.7,32.4a1.083,1.083,0,0,1-1.532,0h0l-4.253-4.252A1.083,1.083,0,0,1,44.45,26.62L48.7,30.873A1.084,1.084,0,0,1,48.7,32.4Zm8.385-3.924v2.039a.064.064,0,0,1-.064.064H50.741a2.984,2.984,0,0,0-.686-1.062l-1.1-1.1h8.074A.064.064,0,0,1,57.089,28.481Z" transform="translate(770.899 2002)" fill="#f6bd28"/>
  </g>
</svg>
