<svg xmlns="http://www.w3.org/2000/svg" width="64" height="64" viewBox="0 0 64 64">
  <g id="play-button" transform="translate(-0.001 0)">
    <g id="Group_4" data-name="Group 4" transform="translate(0.001 0)">
      <g id="Group_3" data-name="Group 3" transform="translate(0 0)">
        <path id="Path_2" data-name="Path 2" d="M59.7,16.006A31.986,31.986,0,0,0,1.1,23.721,31.986,31.986,0,0,0,23.722,62.9,32.159,32.159,0,0,0,32.053,64,32,32,0,0,0,59.7,16.006Zm-.022,23.41A28.655,28.655,0,0,1,7.184,46.327a28.675,28.675,0,0,1,24.77-43,28.813,28.813,0,0,1,7.463.989,28.655,28.655,0,0,1,20.262,35.1Z" transform="translate(-0.001 0)" fill="#f6bd28"/>
      </g>
    </g>
    <g id="Group_6" data-name="Group 6" transform="translate(21.554 16.635)">
      <g id="Group_5" data-name="Group 5">
        <path id="Path_3" data-name="Path 3" d="M198.216,145.428l-20.566-11.874a3.486,3.486,0,0,0-5.229,3.019V160.32a3.478,3.478,0,0,0,5.229,3.019l20.566-11.874a3.486,3.486,0,0,0,0-6.037Zm-1.666,3.153-20.566,11.874a.155.155,0,0,1-.232-.134V136.573a.139.139,0,0,1,.077-.134.157.157,0,0,1,.079-.024.146.146,0,0,1,.076.024l20.566,11.874a.155.155,0,0,1,0,.268Z" transform="translate(-172.422 -133.082)" fill="#f6bd28"/>
      </g>
    </g>
    <g id="Group_8" data-name="Group 8" transform="translate(33.435 7.356)">
      <g id="Group_7" data-name="Group 7">
        <path id="Path_4" data-name="Path 4" d="M285.7,68.3a25.118,25.118,0,0,0-16.337-9.433,1.666,1.666,0,0,0-.451,3.3,21.761,21.761,0,0,1,14.154,8.171A1.666,1.666,0,0,0,285.7,68.3Z" transform="translate(-267.475 -58.855)" fill="#f6bd28"/>
      </g>
    </g>
  </g>
</svg>
