<svg id="radio" xmlns="http://www.w3.org/2000/svg" width="66.588" height="66.587" viewBox="0 0 66.588 66.587">
  <path id="Path_70" data-name="Path 70" d="M174.225,46.888A12.239,12.239,0,0,0,186.45,34.663V12.225a12.225,12.225,0,1,0-24.45,0V34.663A12.239,12.239,0,0,0,174.225,46.888Zm0-44.287a9.635,9.635,0,0,1,9.624,9.624V22.973H164.6V12.225A9.635,9.635,0,0,1,174.225,2.6ZM164.6,25.574h19.248v9.089a9.624,9.624,0,0,1-19.248,0Zm0,0" transform="translate(-140.931)"/>
  <path id="Path_71" data-name="Path 71" d="M222.969,113.914H229.3a1.3,1.3,0,0,0,0-2.6h-6.329a1.3,1.3,0,0,0,0,2.6Zm0,0" transform="translate(-192.839 -96.836)"/>
  <path id="Path_72" data-name="Path 72" d="M222.969,76.644H229.3a1.3,1.3,0,0,0,0-2.6h-6.329a1.3,1.3,0,0,0,0,2.6Zm0,0" transform="translate(-192.839 -64.413)"/>
  <path id="Path_73" data-name="Path 73" d="M152.571,256.531a1.3,1.3,0,0,0-1.3,1.3,15.35,15.35,0,1,1-30.7,0,1.3,1.3,0,0,0-2.6,0,17.982,17.982,0,0,0,14.117,17.538v6.575h-.1a6.518,6.518,0,0,0-6.511,6.511,1.3,1.3,0,0,0,1.3,1.3h18.294a1.3,1.3,0,0,0,1.3-1.3,6.518,6.518,0,0,0-6.511-6.511h-.1V275.37a17.982,17.982,0,0,0,14.117-17.538,1.3,1.3,0,0,0-1.3-1.3Zm-9.027,30.624H128.3a3.916,3.916,0,0,1,3.687-2.609h7.874a3.917,3.917,0,0,1,3.687,2.609Zm-6.391-5.21h-2.467v-6.2c.408.028.819.043,1.233.043s.826-.015,1.233-.043Zm0,0" transform="translate(-102.627 -223.168)"/>
  <path id="Path_74" data-name="Path 74" d="M41.3,93.406a1.3,1.3,0,0,0-1.3,1.3V107.4a1.3,1.3,0,1,0,2.6,0V94.707A1.3,1.3,0,0,0,41.3,93.406Zm0,0" transform="translate(-34.798 -81.258)" fill="#f6bd28"/>
  <path id="Path_75" data-name="Path 75" d="M121.3,127.19a1.3,1.3,0,0,0,1.3-1.3v-6.195a1.3,1.3,0,0,0-2.6,0v6.195A1.3,1.3,0,0,0,121.3,127.19Zm0,0" transform="translate(-104.394 -102.997)" fill="#f6bd28"/>
  <path id="Path_76" data-name="Path 76" d="M1.3,54A1.3,1.3,0,0,0,0,55.3V76.933a1.3,1.3,0,1,0,2.6,0V55.3A1.3,1.3,0,0,0,1.3,54Zm0,0" transform="translate(0 -46.977)" fill="#f6bd28"/>
  <path id="Path_77" data-name="Path 77" d="M81.3,83.316a1.3,1.3,0,0,0-1.3,1.3V102.2a1.3,1.3,0,1,0,2.6,0V84.617A1.3,1.3,0,0,0,81.3,83.316Zm0,0" transform="translate(-69.596 -72.481)" fill="#f6bd28"/>
  <path id="Path_78" data-name="Path 78" d="M453.3,93.406a1.3,1.3,0,0,0-1.3,1.3V107.4a1.3,1.3,0,1,0,2.6,0V94.707A1.3,1.3,0,0,0,453.3,93.406Zm0,0" transform="translate(-393.216 -81.258)" fill="#f6bd28"/>
  <path id="Path_79" data-name="Path 79" d="M373.3,127.19a1.3,1.3,0,0,0,1.3-1.3v-6.195a1.3,1.3,0,0,0-2.6,0v6.195A1.3,1.3,0,0,0,373.3,127.19Zm0,0" transform="translate(-323.62 -102.997)" fill="#f6bd28"/>
  <path id="Path_80" data-name="Path 80" d="M493.3,54a1.3,1.3,0,0,0-1.3,1.3V76.933a1.3,1.3,0,1,0,2.6,0V55.3A1.3,1.3,0,0,0,493.3,54Zm0,0" transform="translate(-428.014 -46.977)" fill="#f6bd28"/>
  <path id="Path_81" data-name="Path 81" d="M413.3,218.488a1.3,1.3,0,1,0,.92.38A1.31,1.31,0,0,0,413.3,218.488Zm0,0" transform="translate(-358.418 -190.073)" fill="#f6bd28"/>
  <path id="Path_82" data-name="Path 82" d="M413.3,83.316a1.3,1.3,0,0,0-1.3,1.3V96.674a1.3,1.3,0,0,0,2.6,0V84.617A1.3,1.3,0,0,0,413.3,83.316Zm0,0" transform="translate(-358.418 -72.481)" fill="#f6bd28"/>
  <path id="Path_83" data-name="Path 83" d="M247.3,264.59a6.767,6.767,0,0,0,6.759-6.759,1.3,1.3,0,0,0-2.6,0,4.163,4.163,0,0,1-4.158,4.158,1.3,1.3,0,0,0,0,2.6Zm0,0" transform="translate(-214.007 -223.168)" fill="#f6bd28"/>
  <path id="Path_84" data-name="Path 84" d="M289.27,224.6a1.3,1.3,0,1,0-.919-.381A1.31,1.31,0,0,0,289.27,224.6Zm0,0" transform="translate(-250.518 -193.128)" fill="#f6bd28"/>
</svg>
