<svg xmlns="http://www.w3.org/2000/svg" xmlns:xlink="http://www.w3.org/1999/xlink" width="59" height="59" viewBox="0 0 59 59">
  <defs>
    <clipPath id="clip-path">
      <rect id="Rectangle_19" data-name="Rectangle 19" width="59" height="59" transform="translate(983.899 1812)" fill="#f6bd28"/>
    </clipPath>
  </defs>
  <g id="Mask_Group_6" data-name="Mask Group 6" transform="translate(-983.899 -1812)" clip-path="url(#clip-path)">
    <g id="family_1_" data-name="family (1)" transform="translate(983.899 1812)">
      <path id="Path_124" data-name="Path 124" d="M39.788,25.485a1.4,1.4,0,1,0,1.4,1.4A1.4,1.4,0,0,0,39.788,25.485Z" fill="#f6bd28"/>
      <path id="Path_125" data-name="Path 125" d="M47.823,25.485a1.4,1.4,0,1,0,1.4,1.4A1.4,1.4,0,0,0,47.823,25.485Z" fill="#f6bd28"/>
      <path id="Path_126" data-name="Path 126" d="M11.177,25.485a1.4,1.4,0,1,0,1.4,1.4A1.4,1.4,0,0,0,11.177,25.485Z" fill="#f6bd28"/>
      <path id="Path_127" data-name="Path 127" d="M19.212,25.485a1.4,1.4,0,1,0,1.4,1.4A1.4,1.4,0,0,0,19.212,25.485Z" fill="#f6bd28"/>
      <path id="Path_128" data-name="Path 128" d="M58.495,45.373a.864.864,0,1,0-1.674.432,13.457,13.457,0,0,1,.4,2.542H40.858a3.127,3.127,0,0,0-.71-.207c0-.02,0-.039,0-.059a10.92,10.92,0,0,0-5.01-9.178,13.332,13.332,0,0,1,4.444-2.494,4.494,4.494,0,0,0,8.444.007,13.449,13.449,0,0,1,7.6,6.355.864.864,0,0,0,1.519-.825,15.2,15.2,0,0,0-2.471-3.354,7.049,7.049,0,0,0,2.058-2.717c2.261-4.809,2.255-14,.665-18.146a14.547,14.547,0,0,0-23.184-5.74.864.864,0,0,0,1.14,1.3,12.822,12.822,0,0,1,20.43,5.059c1.441,3.759,1.44,12.419-.615,16.792a4.871,4.871,0,0,1-1.81,2.252,15.167,15.167,0,0,0-5-2.686,10.6,10.6,0,0,0,6.034-9.556V23.4a.864.864,0,0,0-.718-.852c-4.278-.736-7.239-5.077-7.268-5.12a.872.872,0,0,0-1.519.154c-.02.05-2.119,4.953-10.805,4.953a.864.864,0,0,0-.864.864v1.748A10.6,10.6,0,0,0,39.246,34.7a15.028,15.028,0,0,0-4.992,2.689,4.873,4.873,0,0,1-1.809-2.251c-2.055-4.373-2.056-13.033-.615-16.792A12.881,12.881,0,0,1,33.2,15.718a.864.864,0,1,0-1.429-.972,14.618,14.618,0,0,0-1.558,2.982c-1.59,4.148-1.6,13.337.665,18.146a8.853,8.853,0,0,0,.955,1.6,10.885,10.885,0,0,0-2.352-.312,7.6,7.6,0,0,1,.019-2.38.864.864,0,1,0-1.688-.372,8.115,8.115,0,0,0-.118,2.224,3.684,3.684,0,0,1-1.632-2.264.864.864,0,0,0-1.705.284,5.4,5.4,0,0,0,1.756,2.958q-.4.12-.792.27A15.091,15.091,0,0,0,19.752,34.7a10.659,10.659,0,0,0,4.4-3.919,3.148,3.148,0,0,0,4.017-4.61c2.256-6.549,1.261-10.386,0-12.461a7.941,7.941,0,0,0-5.861-3.748,7.474,7.474,0,0,0-4.091.61c-1.2-1.431-2.57-2.2-5.407-2.2A12.973,12.973,0,0,0,2.5,13.771C-.206,17.885.775,22.722,2.188,26.217a3.149,3.149,0,0,0,4.048,4.567A10.659,10.659,0,0,0,10.63,34.7a15.076,15.076,0,0,0-6.381,3.974A.864.864,0,1,0,5.5,39.87a13.365,13.365,0,0,1,5.475-3.463,4.494,4.494,0,0,0,8.446,0,13.351,13.351,0,0,1,4.213,2.3,10.924,10.924,0,0,0-5.319,9.37c0,.02,0,.039,0,.059a3.127,3.127,0,0,0-.71.207H1.778a13.426,13.426,0,0,1,1.763-5.874.864.864,0,1,0-1.5-.863,15.167,15.167,0,0,0-2.02,7.568v.034a.864.864,0,0,0,.864.864H15.907a3.15,3.15,0,0,0,4.227,4.041,10.91,10.91,0,0,0,18.19,0,3.15,3.15,0,0,0,4.227-4.041h15.56a.864.864,0,0,0,.864-.864v-.034A15.213,15.213,0,0,0,58.495,45.373Zm-32.9-15.967a1.4,1.4,0,0,1-.639-.154,10.5,10.5,0,0,0,.733-2.687,1.422,1.422,0,0,1-.094,2.841ZM3.946,14.722a11.15,11.15,0,0,1,8.87-4.619c2.742,0,3.521.788,4.478,2.086a.869.869,0,0,0,1.177.205,5.692,5.692,0,0,1,3.609-.718,6.243,6.243,0,0,1,4.616,2.93c1.455,2.405,1.461,6,.03,10.437a3.129,3.129,0,0,0-.945-.205V23.4a.864.864,0,0,0-.718-.852c-4.278-.736-7.239-5.077-7.268-5.12a.87.87,0,0,0-1.517.149,7.055,7.055,0,0,1-2.118,2.47,14.1,14.1,0,0,1-8.69,2.489.864.864,0,0,0-.864.864v1.437a3.128,3.128,0,0,0-1.013.233C2.028,20.935,2.145,17.457,3.946,14.722ZM4.8,29.406A1.422,1.422,0,0,1,4.7,26.565a10.5,10.5,0,0,0,.732,2.686A1.41,1.41,0,0,1,4.8,29.406Zm1.561-3.668v-.012c-.012-.191-.021-.382-.021-.576v-.9c6.556-.235,9.6-3.118,10.83-4.809A14.07,14.07,0,0,0,24.053,24.1v1.049c0,.194-.009.386-.021.576v.012a8.856,8.856,0,0,1-17.673,0Zm8.837,11.9a2.771,2.771,0,0,1-2.537-1.665,13.627,13.627,0,0,1,5.073,0A2.771,2.771,0,0,1,15.194,37.638Zm28.612,0a2.771,2.771,0,0,1-2.536-1.664,13.5,13.5,0,0,1,5.071,0A2.771,2.771,0,0,1,43.806,37.638ZM34.948,25.149v-.9c6.556-.235,9.6-3.118,10.83-4.809A14.07,14.07,0,0,0,52.664,24.1v1.049a8.858,8.858,0,0,1-17.717,0ZM18.832,52.67a1.422,1.422,0,0,1-.373-2.794,10.829,10.829,0,0,0,.828,2.717A1.4,1.4,0,0,1,18.832,52.67Zm10.4,4.6a9.191,9.191,0,1,1,9.191-9.191A9.2,9.2,0,0,1,29.23,57.272Zm10.4-4.6a1.4,1.4,0,0,1-.455-.077A10.83,10.83,0,0,0,40,49.876a1.422,1.422,0,0,1-.373,2.794Z" fill="#f6bd28"/>
      <path id="Path_129" data-name="Path 129" d="M25.212,47.713a1.4,1.4,0,1,0,1.4,1.4A1.4,1.4,0,0,0,25.212,47.713Z" fill="#f6bd28"/>
      <path id="Path_130" data-name="Path 130" d="M33.247,47.713a1.4,1.4,0,1,0,1.4,1.4A1.4,1.4,0,0,0,33.247,47.713Z" fill="#f6bd28"/>
      <path id="Path_131" data-name="Path 131" d="M27.244,8.336a14.485,14.485,0,0,0,2.8,1.872.871.871,0,0,0,.756,0,14.485,14.485,0,0,0,2.8-1.872c1.9-1.639,2.78-3.442,2.537-5.215A3.372,3.372,0,0,0,33.025.014a3.528,3.528,0,0,0-2.6.806,3.529,3.529,0,0,0-2.6-.806,3.372,3.372,0,0,0-3.111,3.107C24.465,4.894,25.342,6.7,27.244,8.336Zm-.825-4.98a1.652,1.652,0,0,1,1.543-1.619q.084-.007.167-.007a1.5,1.5,0,0,1,1.467.845.864.864,0,0,0,1.649,0,1.55,1.55,0,0,1,1.634-.838,1.652,1.652,0,0,1,1.543,1.619c.3,2.222-2.5,4.271-4,5.1C28.924,7.625,26.116,5.577,26.42,3.355Z" fill="#f6bd28"/>
    </g>
  </g>
</svg>
