<svg xmlns="http://www.w3.org/2000/svg" xmlns:xlink="http://www.w3.org/1999/xlink" width="59" height="59" viewBox="0 0 59 59">
  <defs>
    <clipPath id="clip-path">
      <rect id="Rectangle_27" data-name="Rectangle 27" width="59" height="59" transform="translate(342 2002)" fill="#f6bd28"/>
    </clipPath>
  </defs>
  <g id="Mask_Group_10" data-name="Mask Group 10" transform="translate(-342 -2002)" clip-path="url(#clip-path)">
    <g id="friendship" transform="translate(342 2002)">
      <g id="Group_80" data-name="Group 80">
        <g id="Group_79" data-name="Group 79">
          <path id="Path_135" data-name="Path 135" d="M48.878,25.643a.864.864,0,0,0-1.126.476,3.155,3.155,0,0,1-5.845,0,.864.864,0,0,0-1.6.647,4.884,4.884,0,0,0,9.05,0A.864.864,0,0,0,48.878,25.643Z" fill="#f6bd28"/>
        </g>
      </g>
      <g id="Group_82" data-name="Group 82">
        <g id="Group_81" data-name="Group 81">
          <path id="Path_136" data-name="Path 136" d="M39.862,19.722a.864.864,0,0,0-.864.864v.479a.864.864,0,1,0,1.729,0v-.479A.864.864,0,0,0,39.862,19.722Z" fill="#f6bd28"/>
        </g>
      </g>
      <g id="Group_84" data-name="Group 84">
        <g id="Group_83" data-name="Group 83">
          <path id="Path_137" data-name="Path 137" d="M49.8,19.722a.864.864,0,0,0-.864.864v.479a.864.864,0,1,0,1.729,0v-.479A.864.864,0,0,0,49.8,19.722Z" fill="#f6bd28"/>
        </g>
      </g>
      <g id="Group_86" data-name="Group 86">
        <g id="Group_85" data-name="Group 85">
          <path id="Path_138" data-name="Path 138" d="M19.239,25.643a.864.864,0,0,0-1.126.476,3.155,3.155,0,0,1-5.845,0,.864.864,0,0,0-1.6.647,4.884,4.884,0,0,0,9.049,0A.864.864,0,0,0,19.239,25.643Z" fill="#f6bd28"/>
        </g>
      </g>
      <g id="Group_88" data-name="Group 88">
        <g id="Group_87" data-name="Group 87">
          <path id="Path_139" data-name="Path 139" d="M10.223,19.722a.864.864,0,0,0-.864.864v.479a.864.864,0,0,0,1.729,0v-.479A.864.864,0,0,0,10.223,19.722Z" fill="#f6bd28"/>
        </g>
      </g>
      <g id="Group_90" data-name="Group 90">
        <g id="Group_89" data-name="Group 89">
          <path id="Path_140" data-name="Path 140" d="M20.157,19.722a.864.864,0,0,0-.864.864v.479a.864.864,0,0,0,1.729,0v-.479A.864.864,0,0,0,20.157,19.722Z" fill="#f6bd28"/>
        </g>
      </g>
      <g id="Group_92" data-name="Group 92">
        <g id="Group_91" data-name="Group 91">
          <path id="Path_141" data-name="Path 141" d="M58.136,14.911A.864.864,0,0,0,59,14.047v-2.4a6.185,6.185,0,0,0-6.178-6.178H51.66l-.141-.326a4.425,4.425,0,0,0-4.064-2.669H41.723A11.077,11.077,0,0,0,30.658,13.541V31.188A4.645,4.645,0,0,0,35.3,35.828h4.944v1.22H19.778V35.4a10.8,10.8,0,0,0,6.11-8.38,3.185,3.185,0,0,0,3.179-3.182v-1.1a3.167,3.167,0,0,0-.743-2.04l1.989-7.872a.864.864,0,0,0-1.676-.423L26.8,19.692a3.164,3.164,0,0,0-.818-.132V16.642a.864.864,0,0,0-1.118-.826c-4.736,1.453-8.887,1.376-12-.223a8.447,8.447,0,0,1-3.311-2.862.864.864,0,0,0-1.618.423c0,2.141-.457,2.6-2.717,2.757a.864.864,0,0,0-.806.862v2.785a3.164,3.164,0,0,0-.9.159,28.136,28.136,0,0,1-.677-3.008c-.134-1.081-.041-4.306.006-5.457,0-.012,0-.024,0-.035A2.569,2.569,0,0,1,5.4,8.652h1.31A.865.865,0,0,0,7.317,8.4l3.092-3.092a2.582,2.582,0,0,1,2.41-.682L23.689,7.211a7.568,7.568,0,0,0,1.751.206A7.6,7.6,0,0,0,30.153,5.77a.086.086,0,0,1,.138.088l-.655,2.59a.864.864,0,0,0,1.676.423l.655-2.591a1.815,1.815,0,0,0-2.89-1.864A5.862,5.862,0,0,1,25.44,5.688a5.841,5.841,0,0,1-1.351-.159L13.219,2.944A4.322,4.322,0,0,0,9.186,4.085L6.348,6.923H5.4A4.3,4.3,0,0,0,1.1,11.2a56.977,56.977,0,0,0,.007,5.724,33.388,33.388,0,0,0,.887,3.855,3.167,3.167,0,0,0-.679,1.962v1.1a3.185,3.185,0,0,0,3.177,3.182A10.776,10.776,0,0,0,10.6,35.4v1.65H8.8a7.058,7.058,0,0,0-1.555.173,2.447,2.447,0,0,0-2.124-1.237h-2.1A3.022,3.022,0,0,0,0,39v4.7a3.022,3.022,0,0,0,1.758,2.742v9.213a.864.864,0,0,0,.864.864H27.759a.864.864,0,0,0,.864-.864V44.092a7.028,7.028,0,0,0-2.43-5.316H40.241v.431c0,2.493,3.741,4.649,4.168,4.887a.864.864,0,0,0,.841,0c.426-.238,4.167-2.395,4.167-4.887v-.431h1.8a5.322,5.322,0,0,1,5.316,5.316V54.8H54.11V49a.864.864,0,0,0-1.729,0V54.8h-15.1v-9.94a.864.864,0,0,0-.864-.864H31.229a.864.864,0,0,0,0,1.729h4.32v9.94a.864.864,0,0,0,.864.864H57.4a.864.864,0,0,0,.864-.864V44.092a7.052,7.052,0,0,0-7.044-7.044h-1.8v-1.22h4.945A4.644,4.644,0,0,0,59,31.188V18.128a.864.864,0,1,0-1.729,0v1.956a3.159,3.159,0,0,0-1.656-.524V15.392a9.62,9.62,0,0,0-1.729-5.521A.864.864,0,0,0,52.629,9.7a21.352,21.352,0,0,1-13.512,4.83,21.358,21.358,0,0,1-4.038-.383.864.864,0,0,0-1.027.8c-.007.141-.011.286-.011.444v4.167a3.161,3.161,0,0,0-1.655.524V13.541A9.347,9.347,0,0,1,41.723,4.2h5.733a2.7,2.7,0,0,1,2.477,1.627l.366.847a.864.864,0,0,0,.793.521h1.73a4.454,4.454,0,0,1,4.449,4.449v2.4A.864.864,0,0,0,58.136,14.911Zm-51.99,11.2a.864.864,0,0,0-.863-.82H4.5a1.454,1.454,0,0,1-1.452-1.453v-1.1A1.454,1.454,0,0,1,4.5,21.286h.773a.864.864,0,0,0,.864-.864V17.554c1.8-.257,2.815-.959,3.255-2.326a11.187,11.187,0,0,0,2.566,1.846c4.036,2.125,8.734,1.649,12.294.714v2.635a.864.864,0,0,0,.864.864h.771a1.455,1.455,0,0,1,1.453,1.453v1.1a1.455,1.455,0,0,1-1.453,1.453H25.1a.864.864,0,0,0-.863.819,9.069,9.069,0,0,1-5.651,7.926l-.016.007a9.092,9.092,0,0,1-6.753,0l-.05-.02A9.048,9.048,0,0,1,6.145,26.109Zm11.9,9.926v3.172a2.859,2.859,0,0,1-5.718,0V36.036a10.8,10.8,0,0,0,5.718,0ZM1.729,43.7V39a1.292,1.292,0,0,1,1.29-1.29h2.1a.719.719,0,0,1,.718.718v5.845a.719.719,0,0,1-.718.718h-2.1A1.291,1.291,0,0,1,1.729,43.7Zm25.166.388V54.8H24.472V49a.864.864,0,0,0-1.729,0V54.8H7.638V49a.864.864,0,0,0-1.729,0V54.8H3.487V46.723H5.123A2.45,2.45,0,0,0,7.57,44.276V38.921A5.326,5.326,0,0,1,8.8,38.776h1.8v.431a4.587,4.587,0,1,0,9.175,0v-.431h1.8A5.322,5.322,0,0,1,26.895,44.092Zm20.794-4.885c0,.958-1.555,2.312-2.859,3.128-1.3-.816-2.86-2.17-2.86-3.128V36.036a10.806,10.806,0,0,0,5.719,0Zm9.583-12.715v4.7h0a2.913,2.913,0,0,1-2.91,2.911H51.515q.389-.308.753-.653a10.744,10.744,0,0,0,3.259-6.427A3.161,3.161,0,0,0,57.271,26.493ZM34.135,21.286h.771a.864.864,0,0,0,.864-.864V16.013a23.223,23.223,0,0,0,3.347.242,23.1,23.1,0,0,0,13.831-4.612,7.9,7.9,0,0,1,.938,3.749v5.03a.864.864,0,0,0,.864.864h.773a1.454,1.454,0,0,1,1.452,1.453v1.1a1.454,1.454,0,0,1-1.452,1.453h-.786a.864.864,0,0,0-.863.819,9.067,9.067,0,0,1-5.636,7.92l-.045.019a9.1,9.1,0,0,1-6.739-.006l-.051-.02a9.048,9.048,0,0,1-5.618-7.913.864.864,0,0,0-.863-.82h-.786a1.455,1.455,0,0,1-1.453-1.453v-1.1h0A1.455,1.455,0,0,1,34.135,21.286Zm0,5.732A10.755,10.755,0,0,0,38.142,34.1H35.3a2.914,2.914,0,0,1-2.911-2.911v-4.7A3.163,3.163,0,0,0,34.132,27.018Z" fill="#f6bd28"/>
        </g>
      </g>
    </g>
  </g>
</svg>
