<svg xmlns="http://www.w3.org/2000/svg" xmlns:xlink="http://www.w3.org/1999/xlink" width="59" height="59" viewBox="0 0 59 59">
  <defs>
    <clipPath id="clip-path">
      <rect id="Rectangle_14" data-name="Rectangle 14" width="59" height="59" transform="translate(556 1622)" fill="#f6bd28"/>
    </clipPath>
  </defs>
  <g id="Mask_Group_13" data-name="Mask Group 13" transform="translate(-556 -1622)" clip-path="url(#clip-path)">
    <g id="prayer" transform="translate(556 1622.001)">
      <path id="Path_143" data-name="Path 143" d="M46.394,34.526a1.151,1.151,0,1,0-.815.338A1.16,1.16,0,0,0,46.394,34.526Zm0,0" fill="#f6bd28"/>
      <path id="Path_144" data-name="Path 144" d="M58.317,32.932a3.893,3.893,0,0,0-6.228-.259V23.554a3.833,3.833,0,0,0-5.357-3.52v-.55a3.835,3.835,0,0,0-7.671,0v.55a3.834,3.834,0,0,0-5.357,3.52v2.607a3.827,3.827,0,0,0-4.2.783,3.827,3.827,0,0,0-4.2-.783V23.555a3.833,3.833,0,0,0-5.357-3.52v-.549a3.835,3.835,0,1,0-7.671,0v.549a3.833,3.833,0,0,0-5.357,3.52v9.118A3.893,3.893,0,0,0,.075,35.888l1.4,7.124a14.254,14.254,0,0,0,3.932,7.359l1.026,1.023a5.191,5.191,0,0,1,1.536,3.7v2.751a1.152,1.152,0,0,0,2.3,0V55.095a7.48,7.48,0,0,0-2.213-5.333L7.039,48.739a11.953,11.953,0,0,1-3.3-6.173l-1.4-7.124a1.59,1.59,0,0,1,1.283-1.873,1.594,1.594,0,0,1,1.82,1.187l.726,2.961a1.537,1.537,0,0,0,.689.952l.006,0,.023.014.02.013,2.761,1.687a4.359,4.359,0,0,1,2.074,3.7,1.152,1.152,0,1,0,2.3,0,6.679,6.679,0,0,0-3.177-5.664L9.214,37.41c0-.021,0-.041,0-.063V23.554a1.53,1.53,0,0,1,3.052-.166V33.712a1.152,1.152,0,0,0,2.3,0V19.485a1.531,1.531,0,0,1,3.061,0V33.712a1.152,1.152,0,0,0,2.3,0V23.388a1.53,1.53,0,0,1,3.052.166l-.009,10.158a1.152,1.152,0,0,0,2.3,0l.009-4.2a1.53,1.53,0,0,1,3.052.167V41.268a11.915,11.915,0,0,1-3.525,8.494,7.481,7.481,0,0,0-2.213,5.333v2.752a1.152,1.152,0,0,0,2.3,0V55.094a5.19,5.19,0,0,1,1.536-3.7,14.281,14.281,0,0,0,3.05-4.484,14.289,14.289,0,0,0,3.051,4.484,5.192,5.192,0,0,1,1.536,3.7v2.752a1.152,1.152,0,0,0,2.3,0V55.094a7.48,7.48,0,0,0-2.213-5.333,11.915,11.915,0,0,1-3.525-8.494V29.682a1.53,1.53,0,0,1,3.052-.166l.009,4.2a1.152,1.152,0,1,0,2.3,0l-.009-10.158a1.531,1.531,0,0,1,3.052-.166V33.712a1.152,1.152,0,1,0,2.3,0V19.485a1.531,1.531,0,0,1,3.062,0V29.5a1.152,1.152,0,0,0,2.3,0V23.388a1.53,1.53,0,0,1,3.052.166V37.348c0,.021,0,.041,0,.063l-1.652,1.01a6.678,6.678,0,0,0-3.176,5.664,1.152,1.152,0,0,0,2.3,0,4.359,4.359,0,0,1,2.073-3.7l2.8-1.713.018-.013a1.537,1.537,0,0,0,.677-.944l.726-2.961a1.594,1.594,0,0,1,1.82-1.187,1.59,1.59,0,0,1,1.284,1.873l-1.4,7.124a11.956,11.956,0,0,1-3.3,6.173l-1.026,1.023a7.48,7.48,0,0,0-2.213,5.333v2.751a1.152,1.152,0,1,0,2.3,0V55.095a5.192,5.192,0,0,1,1.536-3.7l1.026-1.023a14.247,14.247,0,0,0,3.932-7.359l1.4-7.124a3.865,3.865,0,0,0-.608-2.955Zm0,0" fill="#f6bd28"/>
      <path id="Path_145" data-name="Path 145" d="M23.967,15.779a37.521,37.521,0,0,0,4.908,3.914,1.152,1.152,0,0,0,1.251,0,37.486,37.486,0,0,0,4.908-3.914c3.384-3.212,5.1-6.215,5.1-8.926A6.758,6.758,0,0,0,33.489,0,6.541,6.541,0,0,0,29.5,1.374,6.541,6.541,0,0,0,25.511,0a6.759,6.759,0,0,0-6.643,6.853c0,2.711,1.715,5.714,5.1,8.926ZM25.511,2.3a4.208,4.208,0,0,1,3.137,1.408,1.153,1.153,0,0,0,1.7,0A4.208,4.208,0,0,1,33.489,2.3a4.452,4.452,0,0,1,4.338,4.549c0,3.874-5.527,8.529-8.328,10.483-2.8-1.951-8.327-6.6-8.327-10.483A4.452,4.452,0,0,1,25.511,2.3Zm0,0" fill="#f6bd28"/>
      <path id="Path_146" data-name="Path 146" d="M51.624,5.811a1.152,1.152,0,0,0,1.152-1.152V3.227a1.152,1.152,0,1,0-2.3,0V4.659A1.152,1.152,0,0,0,51.624,5.811Zm0,0" fill="#f6bd28"/>
      <path id="Path_147" data-name="Path 147" d="M51.624,12.676a1.153,1.153,0,0,0,1.152-1.152V10.091a1.152,1.152,0,1,0-2.3,0v1.432A1.153,1.153,0,0,0,51.624,12.676Zm0,0" fill="#f6bd28"/>
      <path id="Path_148" data-name="Path 148" d="M54.34,8.527h1.432a1.152,1.152,0,1,0,0-2.3H54.34a1.152,1.152,0,1,0,0,2.3Zm0,0" fill="#f6bd28"/>
      <path id="Path_149" data-name="Path 149" d="M47.476,8.527h1.432a1.152,1.152,0,1,0,0-2.3H47.476a1.152,1.152,0,0,0,0,2.3Zm0,0" fill="#f6bd28"/>
      <path id="Path_150" data-name="Path 150" d="M7.292,11.611a1.152,1.152,0,0,0,1.152-1.152V9.026a1.152,1.152,0,1,0-2.3,0v1.432a1.152,1.152,0,0,0,1.152,1.152Zm0,0" fill="#f6bd28"/>
      <path id="Path_151" data-name="Path 151" d="M7.292,18.475a1.152,1.152,0,0,0,1.152-1.152V15.891a1.152,1.152,0,0,0-2.3,0v1.432a1.152,1.152,0,0,0,1.152,1.152Zm0,0" fill="#f6bd28"/>
      <path id="Path_152" data-name="Path 152" d="M10.008,14.327H11.44a1.152,1.152,0,0,0,0-2.3H10.008a1.152,1.152,0,1,0,0,2.3Zm0,0" fill="#f6bd28"/>
      <path id="Path_153" data-name="Path 153" d="M3.144,14.327H4.576a1.152,1.152,0,0,0,0-2.3H3.144a1.152,1.152,0,1,0,0,2.3Zm0,0" fill="#f6bd28"/>
    </g>
  </g>
</svg>
