<svg xmlns="http://www.w3.org/2000/svg" xmlns:xlink="http://www.w3.org/1999/xlink" width="59" height="59" viewBox="0 0 59 59">
  <defs>
    <clipPath id="clip-path">
      <rect id="Rectangle_16" data-name="Rectangle 16" width="59" height="59" transform="translate(983.899 1622)" fill="#f6bd28"/>
    </clipPath>
  </defs>
  <g id="Mask_Group_3" data-name="Mask Group 3" transform="translate(-983.899 -1622)" clip-path="url(#clip-path)">
    <g id="couple" transform="translate(983.899 1622)">
      <g id="Group_46" data-name="Group 46">
        <g id="Group_45" data-name="Group 45">
          <path id="Path_101" data-name="Path 101" d="M29.389,30.015,23.73,28.3l-.616-1.231a.863.863,0,0,0-1.027-.438v-.214A10.068,10.068,0,0,0,26.246,19a2.875,2.875,0,0,0,1.767-4.281,3.409,3.409,0,0,0,.224-5.926,2.908,2.908,0,0,0-3.916-3.383,8.962,8.962,0,0,0-6.07-2.342H14.16a8.991,8.991,0,0,0-6.07,2.341A2.909,2.909,0,0,0,4.173,8.792a3.409,3.409,0,0,0,.222,5.925A2.879,2.879,0,0,0,6.164,19a10.067,10.067,0,0,0,4.15,7.408v.218a.864.864,0,0,0-1.018.442L8.681,28.3,2.8,30.061A3.908,3.908,0,0,0,0,33.828V55.067a.864.864,0,0,0,1.729,0V33.828c0-.063,0-.126.008-.188l3.455,3.455a3.205,3.205,0,0,1,.945,2.282V55.067a.864.864,0,1,0,1.729,0V39.376a4.923,4.923,0,0,0-1.451-3.5L2.607,32.066a2.219,2.219,0,0,1,.692-.349l3.894-1.168a23.069,23.069,0,0,0,8.532,10.718.864.864,0,0,0,.959,0,22.926,22.926,0,0,0,8.542-10.708l3.661,1.11a.864.864,0,0,0,.5-1.654Zm-7.045-.623-2.921,3.651a.15.15,0,0,1-.126.059.154.154,0,0,1-.124-.063l-1.655-2.206,4.437-2.218Zm-6.139.164-4.163-2.081v-.058a10.058,10.058,0,0,0,8.316,0v.059Zm9.2-22.63a1.179,1.179,0,0,1,.985,1.831.864.864,0,0,0,.489,1.31,1.693,1.693,0,1,1-1.691.48.864.864,0,0,0-.274-1.37,1.178,1.178,0,0,1,.491-2.25ZM4.285,11.686a1.693,1.693,0,0,1,1.242-1.62.864.864,0,0,0,.489-1.31,1.182,1.182,0,1,1,1.476.419.864.864,0,0,0-.274,1.37,1.689,1.689,0,1,1-2.932,1.14Zm3.58,6.564A.864.864,0,0,0,7,17.386a1.254,1.254,0,0,1-1.274-.976,1.176,1.176,0,0,1,.9-1.357.866.866,0,0,0,.1-.028A3.426,3.426,0,0,0,9.4,11.687a3.38,3.38,0,0,0-.358-1.512,2.9,2.9,0,0,0,.4-3.65A7.27,7.27,0,0,1,14.159,4.8H18.25a7.249,7.249,0,0,1,4.721,1.726,2.9,2.9,0,0,0,.4,3.652,3.379,3.379,0,0,0-.358,1.512,3.426,3.426,0,0,0,2.765,3.357c.027.011.054.021.082.029a1.179,1.179,0,0,1,.825,1.337,1.254,1.254,0,0,1-1.274.976.864.864,0,0,0-.864.864,8.34,8.34,0,1,1-16.68,0Zm2.317,10.911.274-.547,4.437,2.218-1.655,2.206a.153.153,0,0,1-.124.063.145.145,0,0,1-.126-.059l-2.9-3.622A.868.868,0,0,0,10.181,29.162ZM16.2,39.5a21.662,21.662,0,0,1-6.836-8.212l2.269,2.836a1.874,1.874,0,0,0,1.473.708h.03a1.874,1.874,0,0,0,1.48-.755l.72-.96v3.543a.864.864,0,1,0,1.729,0V33.115l.72.96a1.874,1.874,0,0,0,1.48.755h.03a1.874,1.874,0,0,0,1.473-.708l2.276-2.845A21.574,21.574,0,0,1,16.2,39.5Z" fill="#f6bd28"/>
        </g>
      </g>
      <g id="Group_48" data-name="Group 48">
        <g id="Group_47" data-name="Group 47">
          <path id="Path_102" data-name="Path 102" d="M18.795,20.647a.864.864,0,0,0-1.216.127,1.695,1.695,0,0,1-2.748,0,.864.864,0,1,0-1.342,1.089,3.42,3.42,0,0,0,5.433,0A.864.864,0,0,0,18.795,20.647Z" fill="#f6bd28"/>
        </g>
      </g>
      <g id="Group_50" data-name="Group 50">
        <g id="Group_49" data-name="Group 49">
          <path id="Path_103" data-name="Path 103" d="M12.114,15.34a.864.864,0,0,0-.864.864v1.023a.864.864,0,1,0,1.729,0V16.2A.864.864,0,0,0,12.114,15.34Z" fill="#f6bd28"/>
        </g>
      </g>
      <g id="Group_52" data-name="Group 52">
        <g id="Group_51" data-name="Group 51">
          <path id="Path_104" data-name="Path 104" d="M20.3,15.34a.864.864,0,0,0-.864.864v1.023a.864.864,0,1,0,1.729,0V16.2A.864.864,0,0,0,20.3,15.34Z" fill="#f6bd28"/>
        </g>
      </g>
      <g id="Group_54" data-name="Group 54">
        <g id="Group_53" data-name="Group 53">
          <path id="Path_105" data-name="Path 105" d="M29.088,34a.864.864,0,0,0-1.222,0L26,35.872a4.923,4.923,0,0,0-1.451,3.5V55.067a.864.864,0,1,0,1.729,0V39.376a3.206,3.206,0,0,1,.945-2.282l1.87-1.87A.864.864,0,0,0,29.088,34Z" fill="#f6bd28"/>
        </g>
      </g>
      <g id="Group_56" data-name="Group 56">
        <g id="Group_55" data-name="Group 55">
          <path id="Path_106" data-name="Path 106" d="M46.408,27.806a.864.864,0,0,0-1.216.127,1.695,1.695,0,0,1-2.748,0A.864.864,0,0,0,41.1,29.022a3.42,3.42,0,0,0,5.433,0A.864.864,0,0,0,46.408,27.806Z" fill="#f6bd28"/>
        </g>
      </g>
      <g id="Group_58" data-name="Group 58">
        <g id="Group_57" data-name="Group 57">
          <path id="Path_107" data-name="Path 107" d="M34.613,42.953a.864.864,0,0,0-.864.864v11.25a.864.864,0,0,0,1.729,0V43.818A.864.864,0,0,0,34.613,42.953Z" fill="#f6bd28"/>
        </g>
      </g>
      <g id="Group_60" data-name="Group 60">
        <g id="Group_59" data-name="Group 59">
          <path id="Path_108" data-name="Path 108" d="M53.022,42.953a.864.864,0,0,0-.864.864v11.25a.864.864,0,0,0,1.729,0V43.818A.864.864,0,0,0,53.022,42.953Z" fill="#f6bd28"/>
        </g>
      </g>
      <g id="Group_62" data-name="Group 62">
        <g id="Group_61" data-name="Group 61">
          <path id="Path_109" data-name="Path 109" d="M56.111,37.047a3.918,3.918,0,0,0-1.205-5.872q0-.071,0-.142a3.413,3.413,0,0,0-1.432-2.785c.059-.2.113-.4.159-.6a9.686,9.686,0,0,0,.217-1.587,12.114,12.114,0,1,0-20.072,0A9.684,9.684,0,0,0,34,27.646c.046.2.1.4.159.6a3.413,3.413,0,0,0-1.432,2.785q0,.071,0,.142a3.918,3.918,0,0,0-1.205,5.872,5.944,5.944,0,0,0-2.889,5.119v12.9a.864.864,0,1,0,1.729,0v-12.9a4.229,4.229,0,0,1,2.671-3.945l.165-.066a13.294,13.294,0,0,0,10.617,5.5,13.124,13.124,0,0,0,10.616-5.5l.166.066a4.229,4.229,0,0,1,2.671,3.945v12.9a.864.864,0,0,0,1.729,0v-12.9A5.944,5.944,0,0,0,56.111,37.047ZM33.432,19.273a10.385,10.385,0,1,1,19.9,4.18c-1.245-2.68-4.013-3.43-6.705-4.159a16.573,16.573,0,0,1-6.356-2.741.864.864,0,0,0-1.313.288,6.728,6.728,0,0,1-2.682,2.682.864.864,0,1,0,.773,1.546,8.178,8.178,0,0,0,2.922-2.593,20.069,20.069,0,0,0,6.2,2.487c.649.176,1.247.342,1.794.516h-.056a2.91,2.91,0,0,0-2.488,1.4,3.568,3.568,0,0,0-3.205,0,2.909,2.909,0,1,0,.4,1.829,1.736,1.736,0,0,1,2.4,0,2.909,2.909,0,1,0,4.871-2.453,4.181,4.181,0,0,1,2.278,3.275.874.874,0,0,0-.026.18,8.325,8.325,0,0,1-16.644,0,.862.862,0,0,0-.257-.584A10.318,10.318,0,0,1,33.432,19.273ZM49.09,24.386a1.181,1.181,0,1,1-1.181-1.181A1.182,1.182,0,0,1,49.09,24.386Zm-8.182,0a1.181,1.181,0,1,1-1.181-1.181A1.182,1.182,0,0,1,40.908,24.386Zm7.878,11.506a7.312,7.312,0,0,1-9.937,0,2.893,2.893,0,0,0,1.294-1.112,10.031,10.031,0,0,0,7.35,0A2.894,2.894,0,0,0,48.786,35.892Zm-15.595.4a2.191,2.191,0,0,1,.76-3.77.864.864,0,0,0,.572-1.05,1.617,1.617,0,0,1,.314-1.514,10.129,10.129,0,0,0,2.654,3.282,9.958,9.958,0,0,0,1.08.759,1.177,1.177,0,0,1-.452.323Zm10.626,5.634a11.358,11.358,0,0,1-8.95-4.443l2.242-.9a9.045,9.045,0,0,0,13.416,0l2.243.9A11.371,11.371,0,0,1,43.818,41.931ZM54.444,36.3l-4.928-1.971A1.177,1.177,0,0,1,49.063,34a9.985,9.985,0,0,0,1.08-.759A10.13,10.13,0,0,0,52.8,29.961a1.617,1.617,0,0,1,.314,1.514.864.864,0,0,0,.572,1.05,2.191,2.191,0,0,1,.76,3.771Z" fill="#f6bd28"/>
        </g>
      </g>
    </g>
  </g>
</svg>
