<svg xmlns="http://www.w3.org/2000/svg" xmlns:xlink="http://www.w3.org/1999/xlink" width="59" height="59" viewBox="0 0 59 59">
  <defs>
    <clipPath id="clip-path">
      <rect id="Rectangle_26" data-name="Rectangle 26" width="59" height="59" transform="translate(556 2002)" fill="#f6bd28"/>
    </clipPath>
  </defs>
  <g id="Mask_Group_11" data-name="Mask Group 11" transform="translate(-556 -2002)" clip-path="url(#clip-path)">
    <g id="surface1" transform="translate(563.406 2002)">
      <path id="Path_142" data-name="Path 142" d="M42.6,32.426a5.431,5.431,0,0,0-7.681,0L30.99,36.353a8.91,8.91,0,0,0-5.427-8.146l1.876-1.876h4.839a6.364,6.364,0,0,0,6.357-6.357V6.357A6.364,6.364,0,0,0,32.277,0H11.911A6.364,6.364,0,0,0,5.555,6.357V19.974a6.364,6.364,0,0,0,6.357,6.357H16.75l1.876,1.876A8.911,8.911,0,0,0,13.2,36.353L9.272,32.426a5.431,5.431,0,1,0-7.682,7.681L12.96,51.477v5.795A1.728,1.728,0,0,0,14.689,59H29.5a1.728,1.728,0,0,0,1.729-1.729V51.477L42.6,40.108a5.431,5.431,0,0,0,0-7.682ZM11.911,22.874a2.9,2.9,0,0,1-2.9-2.9V6.357a2.9,2.9,0,0,1,2.9-2.9H32.277a2.9,2.9,0,0,1,2.9,2.9V19.974a2.9,2.9,0,0,1-2.9,2.9H26.723a1.727,1.727,0,0,0-1.222.506l-3.406,3.406-3.406-3.406a1.728,1.728,0,0,0-1.223-.506ZM22.094,30.96a5.44,5.44,0,1,1-5.44,5.439A5.446,5.446,0,0,1,22.094,30.96Zm18.059,6.7L28.278,49.539a1.729,1.729,0,0,0-.506,1.223v4.782H16.417V50.761a1.728,1.728,0,0,0-.506-1.222L4.035,37.663a1.974,1.974,0,1,1,2.792-2.792l9.919,9.92a1.728,1.728,0,0,0,1.222.506h8.25a1.728,1.728,0,0,0,1.222-.506l9.92-9.92a1.974,1.974,0,1,1,2.792,2.792Zm0,0" fill="#f6bd28"/>
      <g id="Group_93" data-name="Group 93" transform="translate(0.5)">
        <rect id="Rectangle_28" data-name="Rectangle 28" width="4" height="14" rx="2" transform="translate(19.594 6)" fill="#f6bd28"/>
        <rect id="Rectangle_29" data-name="Rectangle 29" width="4" height="11" rx="2" transform="translate(27.094 9.5) rotate(90)" fill="#f6bd28"/>
      </g>
    </g>
  </g>
</svg>
