<svg id="menu-button-of-three-horizontal-lines" xmlns="http://www.w3.org/2000/svg" width="22" height="19.871" viewBox="0 0 22 19.871">
  <path id="Path_159" data-name="Path 159" d="M19.871,6H2.129a2.119,2.119,0,1,0,0,4.239H19.871a2.119,2.119,0,1,0,0-4.239Z" transform="translate(0 -6)" fill="#f6bd28"/>
  <path id="Path_160" data-name="Path 160" d="M19.871,50H2.129a2.119,2.119,0,1,0,0,4.239H19.871a2.119,2.119,0,1,0,0-4.239Z" transform="translate(0 -42.184)" fill="#f6bd28"/>
  <path id="Path_161" data-name="Path 161" d="M19.871,94H2.129a2.119,2.119,0,1,0,0,4.239H19.871a2.119,2.119,0,1,0,0-4.239Z" transform="translate(0 -78.368)" fill="#f6bd28"/>
</svg>
