<svg xmlns="http://www.w3.org/2000/svg" width="43.446" height="43.446" viewBox="0 0 43.446 43.446">
  <g id="play-button" transform="translate(0 0)">
    <g id="Group_4" data-name="Group 4" transform="translate(0 0)">
      <g id="Group_3" data-name="Group 3" transform="translate(0 0)">
        <path id="Path_2" data-name="Path 2" d="M40.528,10.866A21.714,21.714,0,0,0,.75,16.1,21.714,21.714,0,0,0,16.1,42.7a21.831,21.831,0,0,0,5.655.749,21.722,21.722,0,0,0,18.769-32.58Zm-.015,15.892A19.452,19.452,0,0,1,4.877,31.449,19.466,19.466,0,0,1,21.692,2.262a19.56,19.56,0,0,1,5.066.671A19.453,19.453,0,0,1,40.513,26.757Z" transform="translate(-0.001 0)" fill="#f6bd28"/>
      </g>
    </g>
    <g id="Group_6" data-name="Group 6" transform="translate(14.631 11.293)">
      <g id="Group_5" data-name="Group 5">
        <path id="Path_3" data-name="Path 3" d="M189.932,141.463l-13.961-8.06a2.366,2.366,0,0,0-3.55,2.049v16.121a2.361,2.361,0,0,0,3.549,2.049l13.961-8.06a2.366,2.366,0,0,0,0-4.1ZM188.8,143.6l-13.961,8.06a.1.1,0,0,1-.157-.091V135.452a.094.094,0,0,1,.052-.091.106.106,0,0,1,.054-.016.1.1,0,0,1,.051.016l13.961,8.06a.1.1,0,0,1,0,.182Z" transform="translate(-172.422 -133.082)" fill="#f6bd28"/>
      </g>
    </g>
    <g id="Group_8" data-name="Group 8" transform="translate(22.697 4.994)">
      <g id="Group_7" data-name="Group 7">
        <path id="Path_4" data-name="Path 4" d="M279.849,65.268a17.052,17.052,0,0,0-11.09-6.4,1.131,1.131,0,0,0-.306,2.241,14.772,14.772,0,0,1,9.608,5.547,1.131,1.131,0,0,0,1.788-1.384Z" transform="translate(-267.475 -58.855)" fill="#f6bd28"/>
      </g>
    </g>
  </g>
</svg>
